<svg xmlns="http://www.w3.org/2000/svg" xmlns:xlink="http://www.w3.org/1999/xlink" width="1980" zoomAndPan="magnify" viewBox="0 0 1485 1484.999939" height="1980" preserveAspectRatio="xMidYMid meet" version="1.0"><defs><clipPath id="e13804d065"><path d="M 148.5 202.703125 L 1336.5 202.703125 L 1336.5 419 L 148.5 419 Z M 148.5 202.703125 " clip-rule="nonzero"/></clipPath><clipPath id="eb46047780"><path d="M 148.5 634 L 1336.5 634 L 1336.5 851 L 148.5 851 Z M 148.5 634 " clip-rule="nonzero"/></clipPath><clipPath id="a961bd819d"><path d="M 148.5 1066 L 1336.5 1066 L 1336.5 1281.953125 L 148.5 1281.953125 Z M 148.5 1066 " clip-rule="nonzero"/></clipPath></defs><g clip-path="url(#e13804d065)"><path fill="#ffffff" d="M 256.683594 418.621094 L 1228.316406 418.621094 C 1230.082031 418.621094 1231.847656 418.578125 1233.613281 418.492188 C 1235.378906 418.402344 1237.140625 418.273438 1238.898438 418.101562 C 1240.65625 417.925781 1242.410156 417.710938 1244.15625 417.453125 C 1245.902344 417.191406 1247.644531 416.890625 1249.378906 416.546875 C 1251.109375 416.203125 1252.832031 415.8125 1254.546875 415.386719 C 1256.261719 414.957031 1257.964844 414.484375 1259.652344 413.972656 C 1261.34375 413.457031 1263.023438 412.90625 1264.683594 412.308594 C 1266.347656 411.714844 1267.996094 411.078125 1269.628906 410.402344 C 1271.261719 409.726562 1272.875 409.011719 1274.472656 408.253906 C 1276.070312 407.5 1277.648438 406.707031 1279.207031 405.871094 C 1280.765625 405.039062 1282.300781 404.167969 1283.816406 403.261719 C 1285.332031 402.351562 1286.824219 401.40625 1288.292969 400.425781 C 1289.761719 399.445312 1291.207031 398.425781 1292.625 397.375 C 1294.046875 396.324219 1295.4375 395.234375 1296.804688 394.113281 C 1298.167969 392.992188 1299.507812 391.839844 1300.816406 390.652344 C 1302.125 389.46875 1303.40625 388.25 1304.652344 387 C 1305.902344 385.75 1307.121094 384.472656 1308.308594 383.164062 C 1309.492188 381.851562 1310.648438 380.515625 1311.769531 379.148438 C 1312.890625 377.785156 1313.976562 376.390625 1315.027344 374.972656 C 1316.082031 373.554688 1317.097656 372.109375 1318.078125 370.640625 C 1319.0625 369.171875 1320.007812 367.679688 1320.914062 366.164062 C 1321.824219 364.648438 1322.695312 363.109375 1323.527344 361.554688 C 1324.359375 359.996094 1325.152344 358.417969 1325.910156 356.820312 C 1326.664062 355.222656 1327.378906 353.609375 1328.054688 351.976562 C 1328.730469 350.34375 1329.367188 348.695312 1329.964844 347.03125 C 1330.558594 345.367188 1331.113281 343.691406 1331.625 342 C 1332.136719 340.308594 1332.609375 338.605469 1333.039062 336.894531 C 1333.46875 335.179688 1333.855469 333.457031 1334.199219 331.722656 C 1334.542969 329.992188 1334.847656 328.25 1335.105469 326.503906 C 1335.363281 324.753906 1335.582031 323 1335.753906 321.242188 C 1335.925781 319.484375 1336.058594 317.722656 1336.144531 315.957031 C 1336.230469 314.195312 1336.273438 312.429688 1336.273438 310.660156 C 1336.273438 308.894531 1336.230469 307.128906 1336.144531 305.363281 C 1336.058594 303.597656 1335.929688 301.839844 1335.753906 300.078125 C 1335.582031 298.320312 1335.363281 296.566406 1335.105469 294.820312 C 1334.847656 293.074219 1334.542969 291.332031 1334.199219 289.601562 C 1333.855469 287.867188 1333.46875 286.144531 1333.039062 284.429688 C 1332.609375 282.714844 1332.136719 281.011719 1331.625 279.324219 C 1331.113281 277.632812 1330.558594 275.953125 1329.964844 274.292969 C 1329.367188 272.628906 1328.730469 270.980469 1328.054688 269.347656 C 1327.378906 267.714844 1326.664062 266.101562 1325.910156 264.503906 C 1325.152344 262.90625 1324.359375 261.328125 1323.527344 259.769531 C 1322.695312 258.210938 1321.824219 256.675781 1320.914062 255.160156 C 1320.007812 253.644531 1319.0625 252.152344 1318.078125 250.683594 C 1317.097656 249.214844 1316.082031 247.769531 1315.027344 246.351562 C 1313.976562 244.929688 1312.890625 243.539062 1311.769531 242.171875 C 1310.648438 240.808594 1309.492188 239.46875 1308.308594 238.160156 C 1307.121094 236.851562 1305.902344 235.570312 1304.652344 234.324219 C 1303.40625 233.074219 1302.125 231.855469 1300.816406 230.667969 C 1299.507812 229.484375 1298.167969 228.328125 1296.804688 227.207031 C 1295.4375 226.085938 1294.046875 225 1292.625 223.949219 C 1291.207031 222.894531 1289.761719 221.878906 1288.292969 220.898438 C 1286.824219 219.914062 1285.332031 218.96875 1283.816406 218.0625 C 1282.300781 217.152344 1280.765625 216.28125 1279.207031 215.449219 C 1277.648438 214.617188 1276.070312 213.824219 1274.472656 213.066406 C 1272.875 212.3125 1271.261719 211.597656 1269.628906 210.921875 C 1267.996094 210.246094 1266.347656 209.609375 1264.683594 209.011719 C 1263.023438 208.417969 1261.34375 207.863281 1259.652344 207.351562 C 1257.964844 206.839844 1256.261719 206.367188 1254.546875 205.9375 C 1252.832031 205.507812 1251.109375 205.121094 1249.378906 204.777344 C 1247.644531 204.433594 1245.902344 204.128906 1244.15625 203.871094 C 1242.410156 203.613281 1240.65625 203.394531 1238.898438 203.222656 C 1237.140625 203.050781 1235.378906 202.917969 1233.613281 202.832031 C 1231.847656 202.746094 1230.082031 202.703125 1228.316406 202.703125 L 256.683594 202.703125 C 254.917969 202.703125 253.152344 202.746094 251.386719 202.832031 C 249.621094 202.917969 247.859375 203.050781 246.101562 203.222656 C 244.34375 203.394531 242.589844 203.613281 240.84375 203.871094 C 239.097656 204.128906 237.355469 204.433594 235.621094 204.777344 C 233.890625 205.121094 232.167969 205.507812 230.453125 205.9375 C 228.738281 206.367188 227.035156 206.839844 225.347656 207.351562 C 223.65625 207.863281 221.976562 208.417969 220.3125 209.011719 C 218.652344 209.609375 217.003906 210.246094 215.371094 210.921875 C 213.738281 211.597656 212.125 212.3125 210.527344 213.066406 C 208.929688 213.824219 207.351562 214.617188 205.792969 215.449219 C 204.234375 216.28125 202.699219 217.152344 201.183594 218.0625 C 199.667969 218.96875 198.175781 219.914062 196.707031 220.898438 C 195.238281 221.878906 193.792969 222.894531 192.375 223.949219 C 190.953125 225 189.5625 226.085938 188.195312 227.207031 C 186.832031 228.328125 185.492188 229.484375 184.183594 230.667969 C 182.875 231.855469 181.59375 233.074219 180.347656 234.324219 C 179.097656 235.570312 177.878906 236.851562 176.691406 238.160156 C 175.503906 239.46875 174.351562 240.808594 173.230469 242.171875 C 172.109375 243.539062 171.023438 244.929688 169.972656 246.351562 C 168.917969 247.769531 167.902344 249.214844 166.921875 250.683594 C 165.9375 252.152344 164.992188 253.644531 164.085938 255.160156 C 163.175781 256.675781 162.304688 258.210938 161.472656 259.769531 C 160.640625 261.328125 159.847656 262.90625 159.089844 264.503906 C 158.335938 266.101562 157.621094 267.714844 156.945312 269.347656 C 156.265625 270.980469 155.632812 272.628906 155.035156 274.292969 C 154.441406 275.953125 153.886719 277.632812 153.375 279.324219 C 152.863281 281.011719 152.390625 282.714844 151.960938 284.429688 C 151.53125 286.144531 151.144531 287.867188 150.800781 289.601562 C 150.457031 291.332031 150.152344 293.074219 149.894531 294.820312 C 149.636719 296.566406 149.417969 298.320312 149.246094 300.078125 C 149.074219 301.839844 148.941406 303.597656 148.855469 305.363281 C 148.769531 307.128906 148.726562 308.894531 148.726562 310.660156 C 148.726562 312.429688 148.769531 314.195312 148.855469 315.957031 C 148.941406 317.722656 149.074219 319.484375 149.246094 321.242188 C 149.417969 323 149.636719 324.753906 149.894531 326.503906 C 150.152344 328.25 150.457031 329.992188 150.800781 331.722656 C 151.144531 333.457031 151.53125 335.179688 151.960938 336.894531 C 152.390625 338.605469 152.863281 340.308594 153.375 342 C 153.886719 343.691406 154.441406 345.367188 155.035156 347.03125 C 155.632812 348.695312 156.265625 350.34375 156.945312 351.976562 C 157.621094 353.609375 158.335938 355.222656 159.089844 356.820312 C 159.847656 358.417969 160.640625 359.996094 161.472656 361.554688 C 162.304688 363.109375 163.175781 364.648438 164.085938 366.164062 C 164.992188 367.679688 165.9375 369.171875 166.917969 370.640625 C 167.902344 372.109375 168.917969 373.554688 169.972656 374.972656 C 171.023438 376.390625 172.109375 377.785156 173.230469 379.148438 C 174.351562 380.515625 175.503906 381.851562 176.691406 383.164062 C 177.878906 384.472656 179.097656 385.75 180.347656 387 C 181.59375 388.25 182.875 389.46875 184.183594 390.652344 C 185.492188 391.839844 186.832031 392.992188 188.195312 394.113281 C 189.5625 395.234375 190.953125 396.324219 192.375 397.375 C 193.792969 398.425781 195.238281 399.445312 196.707031 400.425781 C 198.175781 401.40625 199.667969 402.351562 201.183594 403.261719 C 202.699219 404.167969 204.234375 405.039062 205.792969 405.871094 C 207.351562 406.707031 208.929688 407.5 210.527344 408.253906 C 212.125 409.011719 213.738281 409.726562 215.371094 410.402344 C 217.003906 411.078125 218.652344 411.714844 220.3125 412.308594 C 221.976562 412.90625 223.65625 413.457031 225.347656 413.972656 C 227.035156 414.484375 228.738281 414.957031 230.453125 415.386719 C 232.167969 415.8125 233.890625 416.203125 235.621094 416.546875 C 237.355469 416.890625 239.097656 417.191406 240.84375 417.453125 C 242.589844 417.710938 244.34375 417.925781 246.101562 418.101562 C 247.859375 418.273438 249.621094 418.402344 251.386719 418.492188 C 253.152344 418.578125 254.917969 418.621094 256.683594 418.621094 Z M 256.683594 418.621094 " fill-opacity="1" fill-rule="nonzero"/></g><g clip-path="url(#eb46047780)"><path fill="#ffffff" d="M 1228.316406 634.539062 L 256.683594 634.539062 C 254.917969 634.539062 253.152344 634.582031 251.386719 634.667969 C 249.621094 634.753906 247.859375 634.886719 246.101562 635.058594 C 244.34375 635.230469 242.589844 635.449219 240.84375 635.707031 C 239.097656 635.964844 237.355469 636.269531 235.621094 636.613281 C 233.890625 636.957031 232.167969 637.34375 230.453125 637.773438 C 228.738281 638.203125 227.035156 638.675781 225.347656 639.1875 C 223.65625 639.699219 221.976562 640.253906 220.3125 640.847656 C 218.652344 641.445312 217.003906 642.078125 215.371094 642.757812 C 213.738281 643.433594 212.125 644.148438 210.527344 644.902344 C 208.929688 645.660156 207.351562 646.453125 205.792969 647.285156 C 204.234375 648.117188 202.699219 648.988281 201.183594 649.898438 C 199.667969 650.804688 198.175781 651.75 196.707031 652.734375 C 195.238281 653.714844 193.792969 654.730469 192.375 655.785156 C 190.953125 656.835938 189.5625 657.921875 188.195312 659.042969 C 186.832031 660.164062 185.492188 661.320312 184.183594 662.503906 C 182.875 663.691406 181.59375 664.910156 180.347656 666.160156 C 179.097656 667.40625 177.878906 668.6875 176.691406 669.996094 C 175.503906 671.304688 174.351562 672.644531 173.230469 674.007812 C 172.109375 675.375 171.023438 676.765625 169.972656 678.1875 C 168.917969 679.605469 167.902344 681.050781 166.921875 682.519531 C 165.9375 683.988281 164.992188 685.480469 164.085938 686.996094 C 163.175781 688.511719 162.304688 690.046875 161.472656 691.605469 C 160.640625 693.164062 159.847656 694.742188 159.089844 696.339844 C 158.335938 697.9375 157.621094 699.550781 156.945312 701.183594 C 156.265625 702.816406 155.632812 704.464844 155.035156 706.125 C 154.441406 707.789062 153.886719 709.46875 153.375 711.160156 C 152.863281 712.847656 152.390625 714.550781 151.960938 716.265625 C 151.53125 717.980469 151.144531 719.703125 150.800781 721.433594 C 150.457031 723.167969 150.152344 724.910156 149.894531 726.65625 C 149.636719 728.402344 149.417969 730.15625 149.246094 731.914062 C 149.074219 733.671875 148.941406 735.433594 148.855469 737.199219 C 148.769531 738.964844 148.726562 740.730469 148.726562 742.496094 C 148.726562 744.265625 148.769531 746.03125 148.855469 747.792969 C 148.941406 749.558594 149.074219 751.320312 149.246094 753.078125 C 149.417969 754.835938 149.636719 756.589844 149.894531 758.339844 C 150.152344 760.085938 150.457031 761.828125 150.800781 763.558594 C 151.144531 765.292969 151.53125 767.015625 151.960938 768.730469 C 152.390625 770.441406 152.863281 772.144531 153.375 773.835938 C 153.886719 775.527344 154.441406 777.203125 155.035156 778.867188 C 155.632812 780.53125 156.265625 782.179688 156.945312 783.8125 C 157.621094 785.445312 158.335938 787.058594 159.089844 788.65625 C 159.847656 790.253906 160.640625 791.832031 161.472656 793.390625 C 162.304688 794.945312 163.175781 796.484375 164.085938 798 C 164.992188 799.515625 165.9375 801.007812 166.917969 802.476562 C 167.902344 803.945312 168.917969 805.390625 169.972656 806.808594 C 171.023438 808.226562 172.109375 809.621094 173.230469 810.984375 C 174.351562 812.351562 175.503906 813.6875 176.691406 815 C 177.878906 816.308594 179.097656 817.585938 180.347656 818.835938 C 181.59375 820.085938 182.875 821.304688 184.183594 822.488281 C 185.492188 823.675781 186.832031 824.828125 188.195312 825.949219 C 189.5625 827.070312 190.953125 828.160156 192.375 829.210938 C 193.792969 830.261719 195.238281 831.28125 196.707031 832.261719 C 198.175781 833.242188 199.667969 834.1875 201.183594 835.097656 C 202.699219 836.003906 204.234375 836.875 205.792969 837.707031 C 207.351562 838.542969 208.929688 839.335938 210.527344 840.089844 C 212.125 840.847656 213.738281 841.5625 215.371094 842.238281 C 217.003906 842.914062 218.652344 843.550781 220.3125 844.144531 C 221.976562 844.742188 223.65625 845.292969 225.347656 845.808594 C 227.035156 846.320312 228.738281 846.792969 230.453125 847.222656 C 232.167969 847.648438 233.890625 848.035156 235.621094 848.382812 C 237.355469 848.726562 239.097656 849.027344 240.84375 849.289062 C 242.589844 849.546875 244.34375 849.761719 246.101562 849.9375 C 247.859375 850.109375 249.621094 850.238281 251.386719 850.328125 C 253.152344 850.414062 254.917969 850.457031 256.683594 850.457031 L 1228.316406 850.457031 C 1230.082031 850.457031 1231.847656 850.414062 1233.613281 850.328125 C 1235.378906 850.238281 1237.140625 850.109375 1238.898438 849.9375 C 1240.65625 849.761719 1242.410156 849.546875 1244.15625 849.289062 C 1245.902344 849.027344 1247.644531 848.726562 1249.378906 848.382812 C 1251.109375 848.035156 1252.832031 847.648438 1254.546875 847.222656 C 1256.261719 846.792969 1257.964844 846.320312 1259.652344 845.808594 C 1261.34375 845.292969 1263.023438 844.742188 1264.683594 844.144531 C 1266.347656 843.550781 1267.996094 842.914062 1269.628906 842.238281 C 1271.261719 841.5625 1272.875 840.847656 1274.472656 840.089844 C 1276.070312 839.335938 1277.648438 838.542969 1279.207031 837.707031 C 1280.765625 836.875 1282.300781 836.003906 1283.816406 835.097656 C 1285.332031 834.1875 1286.824219 833.242188 1288.292969 832.261719 C 1289.761719 831.28125 1291.207031 830.261719 1292.625 829.210938 C 1294.046875 828.160156 1295.4375 827.070312 1296.804688 825.949219 C 1298.167969 824.828125 1299.507812 823.675781 1300.816406 822.488281 C 1302.125 821.304688 1303.40625 820.085938 1304.652344 818.835938 C 1305.902344 817.585938 1307.121094 816.308594 1308.308594 814.996094 C 1309.492188 813.6875 1310.648438 812.351562 1311.769531 810.984375 C 1312.890625 809.621094 1313.976562 808.226562 1315.027344 806.808594 C 1316.082031 805.390625 1317.097656 803.945312 1318.078125 802.476562 C 1319.0625 801.007812 1320.007812 799.515625 1320.914062 798 C 1321.824219 796.484375 1322.695312 794.945312 1323.527344 793.390625 C 1324.359375 791.832031 1325.152344 790.253906 1325.910156 788.65625 C 1326.664062 787.058594 1327.378906 785.445312 1328.054688 783.8125 C 1328.730469 782.179688 1329.367188 780.53125 1329.964844 778.867188 C 1330.558594 777.203125 1331.113281 775.527344 1331.625 773.835938 C 1332.136719 772.144531 1332.609375 770.441406 1333.039062 768.730469 C 1333.46875 767.015625 1333.855469 765.292969 1334.199219 763.558594 C 1334.542969 761.828125 1334.847656 760.085938 1335.105469 758.339844 C 1335.363281 756.589844 1335.582031 754.835938 1335.753906 753.078125 C 1335.925781 751.320312 1336.058594 749.558594 1336.144531 747.792969 C 1336.230469 746.03125 1336.273438 744.265625 1336.273438 742.496094 C 1336.273438 740.730469 1336.230469 738.964844 1336.144531 737.199219 C 1336.058594 735.433594 1335.929688 733.671875 1335.753906 731.914062 C 1335.582031 730.15625 1335.363281 728.402344 1335.105469 726.65625 C 1334.847656 724.910156 1334.542969 723.167969 1334.199219 721.433594 C 1333.855469 719.703125 1333.46875 717.980469 1333.039062 716.265625 C 1332.609375 714.550781 1332.136719 712.847656 1331.625 711.160156 C 1331.113281 709.46875 1330.558594 707.789062 1329.964844 706.125 C 1329.367188 704.464844 1328.730469 702.816406 1328.054688 701.183594 C 1327.378906 699.550781 1326.664062 697.9375 1325.910156 696.339844 C 1325.152344 694.742188 1324.359375 693.164062 1323.527344 691.605469 C 1322.695312 690.046875 1321.824219 688.511719 1320.914062 686.996094 C 1320.007812 685.480469 1319.0625 683.988281 1318.078125 682.519531 C 1317.097656 681.050781 1316.082031 679.605469 1315.027344 678.1875 C 1313.976562 676.765625 1312.890625 675.375 1311.769531 674.007812 C 1310.648438 672.644531 1309.492188 671.304688 1308.308594 669.996094 C 1307.121094 668.6875 1305.902344 667.40625 1304.652344 666.160156 C 1303.40625 664.910156 1302.125 663.691406 1300.816406 662.503906 C 1299.507812 661.320312 1298.167969 660.164062 1296.804688 659.042969 C 1295.4375 657.921875 1294.046875 656.835938 1292.625 655.785156 C 1291.207031 654.730469 1289.761719 653.714844 1288.292969 652.734375 C 1286.824219 651.75 1285.332031 650.804688 1283.816406 649.898438 C 1282.300781 648.988281 1280.765625 648.117188 1279.207031 647.285156 C 1277.648438 646.453125 1276.070312 645.660156 1274.472656 644.902344 C 1272.875 644.148438 1271.261719 643.433594 1269.628906 642.757812 C 1267.996094 642.078125 1266.347656 641.445312 1264.683594 640.847656 C 1263.023438 640.253906 1261.34375 639.699219 1259.652344 639.1875 C 1257.964844 638.675781 1256.261719 638.203125 1254.546875 637.773438 C 1252.832031 637.34375 1251.109375 636.957031 1249.378906 636.613281 C 1247.644531 636.269531 1245.902344 635.964844 1244.15625 635.707031 C 1242.410156 635.449219 1240.65625 635.230469 1238.898438 635.058594 C 1237.140625 634.886719 1235.378906 634.753906 1233.613281 634.667969 C 1231.847656 634.582031 1230.082031 634.539062 1228.316406 634.539062 Z M 1228.316406 634.539062 " fill-opacity="1" fill-rule="nonzero"/></g><g clip-path="url(#a961bd819d)"><path fill="#ffffff" d="M 1228.316406 1066.375 L 256.683594 1066.375 C 254.917969 1066.375 253.152344 1066.417969 251.386719 1066.503906 C 249.621094 1066.589844 247.859375 1066.722656 246.101562 1066.894531 C 244.34375 1067.066406 242.589844 1067.285156 240.84375 1067.542969 C 239.097656 1067.800781 237.355469 1068.105469 235.621094 1068.449219 C 233.890625 1068.792969 232.167969 1069.179688 230.453125 1069.609375 C 228.738281 1070.039062 227.035156 1070.511719 225.347656 1071.023438 C 223.65625 1071.535156 221.976562 1072.089844 220.3125 1072.683594 C 218.652344 1073.28125 217.003906 1073.914062 215.371094 1074.59375 C 213.738281 1075.269531 212.125 1075.984375 210.527344 1076.738281 C 208.929688 1077.496094 207.351562 1078.289062 205.792969 1079.121094 C 204.234375 1079.953125 202.699219 1080.824219 201.183594 1081.734375 C 199.667969 1082.640625 198.175781 1083.585938 196.707031 1084.570312 C 195.238281 1085.550781 193.792969 1086.566406 192.375 1087.621094 C 190.953125 1088.671875 189.5625 1089.757812 188.195312 1090.878906 C 186.832031 1092 185.492188 1093.15625 184.183594 1094.339844 C 182.875 1095.527344 181.59375 1096.746094 180.347656 1097.996094 C 179.097656 1099.242188 177.878906 1100.523438 176.691406 1101.832031 C 175.503906 1103.140625 174.351562 1104.480469 173.230469 1105.84375 C 172.109375 1107.210938 171.023438 1108.601562 169.972656 1110.023438 C 168.917969 1111.441406 167.902344 1112.886719 166.921875 1114.355469 C 165.9375 1115.824219 164.992188 1117.316406 164.085938 1118.832031 C 163.175781 1120.347656 162.304688 1121.882812 161.472656 1123.441406 C 160.640625 1125 159.847656 1126.578125 159.089844 1128.175781 C 158.335938 1129.773438 157.621094 1131.386719 156.945312 1133.019531 C 156.265625 1134.652344 155.632812 1136.300781 155.035156 1137.960938 C 154.441406 1139.625 153.886719 1141.304688 153.375 1142.996094 C 152.863281 1144.683594 152.390625 1146.386719 151.960938 1148.101562 C 151.53125 1149.816406 151.144531 1151.539062 150.800781 1153.269531 C 150.457031 1155.003906 150.152344 1156.746094 149.894531 1158.492188 C 149.636719 1160.238281 149.417969 1161.992188 149.246094 1163.75 C 149.074219 1165.507812 148.941406 1167.269531 148.855469 1169.035156 C 148.769531 1170.800781 148.726562 1172.566406 148.726562 1174.332031 C 148.726562 1176.101562 148.769531 1177.867188 148.855469 1179.628906 C 148.941406 1181.394531 149.074219 1183.15625 149.246094 1184.914062 C 149.417969 1186.671875 149.636719 1188.425781 149.894531 1190.175781 C 150.152344 1191.921875 150.457031 1193.660156 150.800781 1195.394531 C 151.144531 1197.128906 151.53125 1198.851562 151.960938 1200.566406 C 152.390625 1202.277344 152.863281 1203.980469 153.375 1205.671875 C 153.886719 1207.363281 154.441406 1209.039062 155.035156 1210.703125 C 155.632812 1212.367188 156.265625 1214.015625 156.945312 1215.648438 C 157.621094 1217.28125 158.335938 1218.894531 159.089844 1220.492188 C 159.847656 1222.089844 160.640625 1223.667969 161.472656 1225.222656 C 162.304688 1226.78125 163.175781 1228.320312 164.085938 1229.835938 C 164.992188 1231.351562 165.9375 1232.84375 166.917969 1234.3125 C 167.902344 1235.78125 168.917969 1237.226562 169.972656 1238.644531 C 171.023438 1240.0625 172.109375 1241.457031 173.230469 1242.820312 C 174.351562 1244.1875 175.503906 1245.523438 176.691406 1246.832031 C 177.878906 1248.144531 179.097656 1249.421875 180.347656 1250.671875 C 181.59375 1251.921875 182.875 1253.140625 184.183594 1254.324219 C 185.492188 1255.511719 186.832031 1256.664062 188.195312 1257.785156 C 189.5625 1258.90625 190.953125 1259.992188 192.375 1261.046875 C 193.792969 1262.097656 195.238281 1263.117188 196.707031 1264.097656 C 198.175781 1265.078125 199.667969 1266.023438 201.183594 1266.933594 C 202.699219 1267.839844 204.234375 1268.710938 205.792969 1269.542969 C 207.351562 1270.378906 208.929688 1271.171875 210.527344 1271.925781 C 212.125 1272.683594 213.738281 1273.398438 215.371094 1274.074219 C 217.003906 1274.75 218.652344 1275.386719 220.3125 1275.980469 C 221.976562 1276.578125 223.65625 1277.128906 225.347656 1277.644531 C 227.035156 1278.15625 228.738281 1278.628906 230.453125 1279.058594 C 232.167969 1279.484375 233.890625 1279.871094 235.621094 1280.21875 C 237.355469 1280.5625 239.097656 1280.863281 240.84375 1281.125 C 242.589844 1281.382812 244.34375 1281.597656 246.101562 1281.773438 C 247.859375 1281.945312 249.621094 1282.074219 251.386719 1282.164062 C 253.152344 1282.25 254.917969 1282.292969 256.683594 1282.292969 L 1228.316406 1282.292969 C 1230.082031 1282.292969 1231.847656 1282.25 1233.613281 1282.164062 C 1235.378906 1282.074219 1237.140625 1281.945312 1238.898438 1281.773438 C 1240.65625 1281.597656 1242.410156 1281.382812 1244.15625 1281.125 C 1245.902344 1280.863281 1247.644531 1280.5625 1249.378906 1280.21875 C 1251.109375 1279.871094 1252.832031 1279.484375 1254.546875 1279.058594 C 1256.261719 1278.628906 1257.964844 1278.15625 1259.652344 1277.644531 C 1261.34375 1277.128906 1263.023438 1276.578125 1264.683594 1275.980469 C 1266.347656 1275.386719 1267.996094 1274.75 1269.628906 1274.074219 C 1271.261719 1273.398438 1272.875 1272.683594 1274.472656 1271.925781 C 1276.070312 1271.171875 1277.648438 1270.378906 1279.207031 1269.542969 C 1280.765625 1268.710938 1282.300781 1267.839844 1283.816406 1266.933594 C 1285.332031 1266.023438 1286.824219 1265.078125 1288.292969 1264.097656 C 1289.761719 1263.117188 1291.207031 1262.097656 1292.625 1261.046875 C 1294.046875 1259.992188 1295.4375 1258.90625 1296.804688 1257.785156 C 1298.167969 1256.664062 1299.507812 1255.511719 1300.816406 1254.324219 C 1302.125 1253.140625 1303.40625 1251.921875 1304.652344 1250.671875 C 1305.902344 1249.421875 1307.121094 1248.144531 1308.308594 1246.832031 C 1309.492188 1245.523438 1310.648438 1244.1875 1311.769531 1242.820312 C 1312.890625 1241.457031 1313.976562 1240.0625 1315.027344 1238.644531 C 1316.082031 1237.226562 1317.097656 1235.78125 1318.078125 1234.3125 C 1319.0625 1232.84375 1320.007812 1231.351562 1320.914062 1229.835938 C 1321.824219 1228.320312 1322.695312 1226.78125 1323.527344 1225.222656 C 1324.359375 1223.667969 1325.152344 1222.089844 1325.910156 1220.492188 C 1326.664062 1218.894531 1327.378906 1217.28125 1328.054688 1215.648438 C 1328.730469 1214.015625 1329.367188 1212.367188 1329.964844 1210.703125 C 1330.558594 1209.039062 1331.113281 1207.363281 1331.625 1205.671875 C 1332.136719 1203.980469 1332.609375 1202.277344 1333.039062 1200.566406 C 1333.46875 1198.851562 1333.855469 1197.128906 1334.199219 1195.394531 C 1334.542969 1193.660156 1334.847656 1191.921875 1335.105469 1190.175781 C 1335.363281 1188.425781 1335.582031 1186.671875 1335.753906 1184.914062 C 1335.925781 1183.15625 1336.058594 1181.394531 1336.144531 1179.628906 C 1336.230469 1177.867188 1336.273438 1176.101562 1336.273438 1174.332031 C 1336.273438 1172.566406 1336.230469 1170.800781 1336.144531 1169.035156 C 1336.058594 1167.269531 1335.929688 1165.507812 1335.753906 1163.75 C 1335.582031 1161.992188 1335.363281 1160.238281 1335.105469 1158.492188 C 1334.847656 1156.746094 1334.542969 1155.003906 1334.199219 1153.269531 C 1333.855469 1151.539062 1333.46875 1149.816406 1333.039062 1148.101562 C 1332.609375 1146.386719 1332.136719 1144.683594 1331.625 1142.996094 C 1331.113281 1141.304688 1330.558594 1139.625 1329.964844 1137.960938 C 1329.367188 1136.300781 1328.730469 1134.652344 1328.054688 1133.019531 C 1327.378906 1131.386719 1326.664062 1129.773438 1325.910156 1128.175781 C 1325.152344 1126.578125 1324.359375 1125 1323.527344 1123.441406 C 1322.695312 1121.882812 1321.824219 1120.347656 1320.914062 1118.832031 C 1320.007812 1117.316406 1319.0625 1115.824219 1318.078125 1114.355469 C 1317.097656 1112.886719 1316.082031 1111.441406 1315.027344 1110.023438 C 1313.976562 1108.601562 1312.890625 1107.210938 1311.769531 1105.84375 C 1310.648438 1104.480469 1309.492188 1103.140625 1308.308594 1101.832031 C 1307.121094 1100.523438 1305.902344 1099.242188 1304.652344 1097.996094 C 1303.40625 1096.746094 1302.125 1095.527344 1300.816406 1094.339844 C 1299.507812 1093.15625 1298.167969 1092 1296.804688 1090.878906 C 1295.4375 1089.757812 1294.046875 1088.671875 1292.625 1087.621094 C 1291.207031 1086.566406 1289.761719 1085.550781 1288.292969 1084.570312 C 1286.824219 1083.585938 1285.332031 1082.640625 1283.816406 1081.734375 C 1282.300781 1080.824219 1280.765625 1079.953125 1279.207031 1079.121094 C 1277.648438 1078.289062 1276.070312 1077.496094 1274.472656 1076.738281 C 1272.875 1075.984375 1271.261719 1075.269531 1269.628906 1074.59375 C 1267.996094 1073.914062 1266.347656 1073.28125 1264.683594 1072.683594 C 1263.023438 1072.089844 1261.34375 1071.535156 1259.652344 1071.023438 C 1257.964844 1070.511719 1256.261719 1070.039062 1254.546875 1069.609375 C 1252.832031 1069.179688 1251.109375 1068.792969 1249.378906 1068.449219 C 1247.644531 1068.105469 1245.902344 1067.800781 1244.15625 1067.542969 C 1242.410156 1067.285156 1240.65625 1067.066406 1238.898438 1066.894531 C 1237.140625 1066.722656 1235.378906 1066.589844 1233.613281 1066.503906 C 1231.847656 1066.417969 1230.082031 1066.375 1228.316406 1066.375 Z M 1228.316406 1066.375 " fill-opacity="1" fill-rule="nonzero"/></g></svg>