<?xml version="1.0" encoding="UTF-8" standalone="no"?>
<!-- Created with Inkscape (http://www.inkscape.org/) -->

<svg
   version="1.1"
   id="svg1"
   width="1980"
   height="1980"
   viewBox="0 0 1980 1980"
   sodipodi:docname="1.svg"
   inkscape:version="1.3 (0e150ed6c4, 2023-07-21)"
   xmlns:inkscape="http://www.inkscape.org/namespaces/inkscape"
   xmlns:sodipodi="http://sodipodi.sourceforge.net/DTD/sodipodi-0.dtd"
   xmlns="http://www.w3.org/2000/svg"
   xmlns:svg="http://www.w3.org/2000/svg">
  <defs
     id="defs1">
    <rect
       x="172.9818"
       y="1733.4218"
       width="495.29812"
       height="157.26244"
       id="rect1" />
  </defs>
  <sodipodi:namedview
     id="namedview1"
     pagecolor="#505050"
     bordercolor="#eeeeee"
     borderopacity="1"
     inkscape:showpageshadow="0"
     inkscape:pageopacity="0"
     inkscape:pagecheckerboard="0"
     inkscape:deskcolor="#505050"
     inkscape:zoom="0.27748585"
     inkscape:cx="825.26731"
     inkscape:cy="1335.2032"
     inkscape:window-width="1920"
     inkscape:window-height="991"
     inkscape:window-x="-9"
     inkscape:window-y="-9"
     inkscape:window-maximized="1"
     inkscape:current-layer="g1"
     showgrid="true">
    <inkscape:grid
       id="grid1"
       units="px"
       originx="0"
       originy="0"
       spacingx="1"
       spacingy="1"
       empcolor="#0099e5"
       empopacity="0.30196078"
       color="#0099e5"
       opacity="0.14901961"
       empspacing="5"
       dotted="false"
       gridanglex="30"
       gridanglez="30"
       visible="true" />
  </sodipodi:namedview>
  <g
     inkscape:groupmode="layer"
     inkscape:label="Image"
     id="g1">
    <path
       style="fill:#23e873;fill-opacity:1;stroke:#00742f;stroke-width:8.96926;stroke-dasharray:none;stroke-opacity:1"
       d="m 838.35908,1575.2459 c -61.6966,-14.1217 -106.88111,-28.4108 -149.27404,-47.2057 -7.39964,-3.2808 -15.65213,-6.9202 -18.33868,-8.0878 l -4.8849,-2.1228 0.68166,-6.4066 c 0.37492,-3.5237 1.04941,-26.011 1.49863,-49.9716 l 0.8171,-43.565 -7.50509,-3.839 c -10.62408,-5.4347 -48.15389,-29.5183 -64.32878,-41.2809 -16.64105,-12.1016 -47.80908,-37.2381 -59.13597,-47.6919 -4.58073,-4.2276 -8.97336,-7.706 -9.76124,-7.7293 -0.78789,-0.023 -21.48875,7.1648 -46.00185,15.974 -24.51311,8.809 -45.24186,16.0165 -46.06388,16.0165 -1.83713,0 -32.54166,-35.247 -47.43806,-54.4562 -20.15715,-25.993 -47.48745,-66.8881 -61.25189,-91.6529 l -4.65036,-8.3669 7.88026,-10.2123 c 4.33414,-5.6166 17.78711,-23.0707 29.89551,-38.7864 l 22.01525,-28.5742 -6.98485,-15.6286 c -19.67098,-44.0137 -38.28154,-101.83593 -45.39967,-141.05466 -1.45311,-8.00616 -1.96175,-8.96663 -5.51213,-10.409 -2.15121,-0.8739 -23.30287,-7.23324 -47.00369,-14.13198 l -43.09242,-12.54299 -1.42326,-12.92506 c -4.84295,-43.97976 -5.29163,-138.96783 -0.84482,-178.85631 1.21773,-10.9232 2.30187,-19.92875 2.40919,-20.01223 0.10738,-0.0834 21.15175,-6.37818 46.76541,-13.98819 25.61365,-7.61009 46.75285,-14.46097 46.97599,-15.22418 0.22315,-0.76321 1.92323,-8.59505 3.77797,-17.40413 8.24287,-39.14946 24.80062,-89.87662 41.71048,-127.78635 l 8.70463,-19.51462 -29.87803,-38.78554 -29.87804,-38.78554 4.56104,-8.3286 c 13.73659,-25.0834 43.19884,-69.05111 62.80631,-93.72836 18.28415,-23.0118 43.87551,-52.34182 45.67226,-52.34456 0.78431,-7.7e-4 21.99736,7.26835 47.1401,16.15453 l 45.7141,16.15669 12.58604,-11.21309 c 36.32126,-32.35899 83.1846,-65.83858 119.37337,-85.28126 l 8.12537,-4.36543 -0.80236,-43.56496 c -0.44129,-23.96073 -1.12397,-46.48744 -1.51709,-50.05937 l -0.71458,-6.49444 10.67521,-4.87981 c 26.86739,-12.28141 66.70092,-27.082897 98.13662,-36.465998 32.61067,-9.733814 73.2529,-18.992447 74.567,-16.986995 0.40046,0.610997 13.03941,19.070546 28.08659,41.021238 22.99467,33.544395 27.84568,39.910335 30.41262,39.910335 1.67966,0 12.43217,-0.94478 23.89436,-2.09951 28.34068,-2.85511 95.28183,-2.83217 121.91003,0.0418 10.4859,1.13173 20.3495,2.05769 21.9194,2.05769 2.3085,0 8.0738,-7.65782 30.1454,-40.041312 15.0101,-22.022725 27.6712,-40.482623 28.1359,-41.021972 1.0951,-1.271263 20.5525,2.746209 48.7268,10.060881 40.7283,10.573925 99.3775,31.363663 125.4302,44.462063 l 8.189,4.11721 -0.231,24.8692 c -0.127,13.67809 -0.4538,25.22929 -0.7259,25.66936 -0.2718,0.44008 -0.6306,11.59957 -0.7972,24.79885 l -0.3027,23.99873 17.8251,10.40065 c 35.4033,20.6572 73.092,47.86784 105.3582,76.06693 l 17.0604,14.90995 45.7244,-16.13102 c 25.1484,-8.87206 46.301,-16.11593 47.0057,-16.09747 2.6617,0.0697 37.5384,41.02747 55.941,65.69472 17.4513,23.39209 47.077,68.98712 55.3075,85.12029 1.826,3.57939 1.7198,3.74009 -28.0269,42.36124 l -29.8599,38.76822 8.3431,18.89128 c 18.8215,42.61793 35.7133,95.16749 43.4875,135.28766 1.4857,7.66655 2.8556,11.596 4.2389,12.15719 1.1241,0.4561 22.2247,6.89045 46.8901,14.29854 l 44.8463,13.4692 1.4994,12.10823 c 5.6828,45.89242 5.8036,128.58497 0.2701,184.79934 -1.4344,14.5725 -1.5594,14.9807 -4.8242,15.76377 -1.8437,0.44214 -23.0208,6.61191 -47.0607,13.71046 l -43.7087,12.90631 -1.6123,9.12891 c -6.5195,36.91935 -25.509,96.3582 -44.2616,138.5424 -4.0728,9.1613 -7.4128,17.2355 -7.4227,17.9427 -0.012,0.7071 12.852,17.9933 28.5819,38.4138 15.7297,20.4206 28.8561,38.1093 29.1696,39.3086 1.4828,5.6697 -45.6686,77.7031 -71.7166,109.5615 -16.7932,20.5392 -38.7507,45.2606 -40.2056,45.2663 -0.7728,0 -21.6256,-7.2019 -46.3397,-16.0111 -24.714,-8.809 -45.3627,-16.0164 -45.8858,-16.0164 -0.5229,0 -5.3285,3.9007 -10.679,8.6682 -37.1872,33.136 -79.0418,63.4092 -119.3632,86.3348 -8.4346,4.7957 -11.3609,7.1056 -10.9299,8.6275 0.3235,1.1432 0.9857,23.4165 1.4714,49.4962 l 0.8831,47.4176 -4.9608,2.3928 c -24.8612,11.9922 -66.9812,27.8877 -101.06,38.1392 -28.5895,8.5999 -71.9846,18.6738 -75.1722,17.4508 -0.9718,-0.373 -14.1211,-18.6929 -29.2204,-40.711 l -27.4533,-40.033 -8.3938,0.7761 c -4.6166,0.4268 -15.6012,1.4332 -24.4103,2.2363 -25.8351,2.3555 -86.30704,1.9643 -115.16832,-0.745 l -24.83525,-2.3315 -2.34866,3.0754 c -1.29164,1.6914 -13.92922,19.9407 -28.08327,40.5539 -24.93838,36.319 -25.86156,37.4741 -29.835,37.3301 -2.25516,-0.082 -5.25344,-0.4126 -6.66292,-0.7352 z M 1022.2287,1446.112 c 79.5241,-2.5563 167.3122,-25.1673 244.0919,-62.8689 114.4147,-56.1817 210.8335,-149.0771 272.5842,-262.6235 37.1854,-68.3762 61.3059,-145.26854 70.9424,-226.15332 2.7662,-23.21975 3.9125,-102.72117 1.8681,-129.57628 -13.8038,-181.33202 -102.1684,-343.25831 -246.7328,-452.13307 -59.4393,-44.76512 -120.5403,-76.11987 -190.0124,-97.50741 -60.5213,-18.632 -116.0092,-26.89523 -180.93034,-26.94411 -45.86391,-0.0345 -77.8625,2.77534 -119.16302,10.46399 -92.67926,17.25353 -184.85634,58.30298 -260.12813,115.84354 -43.28639,33.08971 -88.56909,78.80049 -121.90934,123.06193 -38.10839,50.59147 -71.49605,114.40661 -91.90457,175.66088 -22.19333,66.61127 -31.11549,124.80465 -31.11909,202.96984 -0.004,81.56988 8.28898,135.53021 31.60506,205.65221 17.83425,53.6357 39.54575,98.4387 70.46187,145.4024 29.93198,45.4686 73.22557,94.6119 114.33615,129.7847 91.02797,77.8806 201.89654,127.9648 319.40985,144.2919 28.75985,3.9958 70.13134,6.5961 89.69256,5.6376 3.17126,-0.1554 15.2797,-0.5886 26.9076,-0.9624 z m -71.75387,-52.8121 c -108.55262,-8.1797 -211.56753,-45.9049 -298.66667,-109.3745 -53.50941,-38.9927 -103.39808,-91.091 -140.42868,-146.6485 -53.85524,-80.8001 -84.9072,-168.0123 -94.6686,-265.88575 -2.68111,-26.88228 -1.95939,-98.25643 1.23723,-122.35493 10.75911,-81.11046 34.48604,-151.58813 74.41104,-221.02813 62.70432,-109.05913 164.37173,-197.54587 281.93382,-245.38251 44.94609,-18.2888 86.25332,-29.30112 140.30478,-37.40452 22.85929,-3.42709 25.53165,-3.55432 74.95732,-3.56856 51.59343,-0.0149 61.17833,0.58516 94.17713,5.89568 80.0008,12.87466 154.4042,41.83225 224.5936,87.4113 60.0609,39.0019 113.4605,90.74743 155.5839,150.76497 59.519,84.80252 94.3034,181.60424 102.9811,286.58682 2.0181,24.4142 0.8844,90.47263 -1.9205,111.9045 -11.7547,89.8163 -38.5799,165.49803 -85.3826,240.88853 -34.5901,55.7185 -86.3932,111.8156 -141.7182,153.4658 -86.2345,64.9196 -186.0673,103.3656 -295.0594,113.6286 -19.0489,1.7937 -74.38614,2.4536 -92.33527,1.1012 z m 37.79899,-39.4519 c -38.87526,-11.9695 -70.95095,-28.7299 -106.33967,-55.5653 -15.9331,-12.0822 -54.40561,-50.2614 -68.24932,-67.7291 -50.39379,-63.5857 -86.07594,-137.0461 -105.98973,-218.2056 -7.71959,-31.46159 -7.40323,-36.29323 2.65131,-40.49425 4.11868,-1.72091 5.34247,-1.55637 18.82851,2.53204 35.94044,10.89539 66.42837,14.26203 119.4347,13.18872 20.43711,-0.4137 48.402,-1.4006 62.1442,-2.19305 34.14473,-1.96868 96.01528,-2.01084 113.39698,-0.0767 32.2784,3.59077 58.9181,10.8027 83.2859,22.54744 60.3875,29.1053 102.1113,91.0952 125.491,186.444 6.1893,25.2412 10.2501,47.3771 8.9141,48.5903 -1.935,1.7567 -39.5978,8.763 -63.2917,11.7741 -30.0546,3.8193 -82.3959,4.1613 -110.1938,0.7205 -74.79476,-9.2585 -137.88102,-36.5581 -195.87537,-84.7622 -17.53822,-14.5775 -43.612,-40.907 -59.02985,-59.6086 -16.97881,-20.5952 -17.11538,-20.7095 -8.40776,-7.0473 24.25729,38.06 60.63293,81.6233 92.89727,111.2534 42.07257,38.6378 93.00976,67.3223 142.76281,80.3946 26.8924,7.0659 46.8512,9.4608 78.9059,9.4686 29.5741,0.012 38.3305,-0.8099 68.5506,-6.3975 29.2117,-5.4012 73.167,-19.3679 102.2178,-32.4795 17.3335,-7.8231 51.7367,-35.4807 83.0011,-66.7267 89.3924,-89.3394 143.4624,-203.73208 156.2028,-330.46858 8.3062,-82.62698 -5.2121,-175.74166 -36.7631,-253.22801 -49.7892,-122.27771 -140.8382,-221.13185 -258.5309,-280.69324 -25.7989,-13.05622 -54.5063,-25.01232 -78.1102,-32.53144 -14.6402,-4.66376 -54.9162,-14.93414 -63.4759,-16.18642 l -5.766,-0.84354 10.8912,6.91672 c 93.8089,59.57537 170.1284,172.8204 202.3645,300.27411 8.1313,32.14959 8.6783,35.91771 5.9487,40.98618 -2.6407,4.90368 -8.0069,7.64544 -13.214,6.75157 -1.9478,-0.33436 -8.7308,-2.16387 -15.0734,-4.06556 -30.9898,-9.29168 -58.2615,-12.45159 -106.3497,-12.32244 -19.7323,0.053 -45.6792,0.66726 -57.6595,1.36503 -11.9803,0.69777 -40.8101,1.61206 -64.0661,2.03175 -58.1752,1.04988 -87.57205,-2.24688 -122.94537,-13.78792 -41.98509,-13.69798 -75.924,-39.96085 -101.78854,-78.76664 -24.35191,-36.53612 -42.34461,-84.22361 -54.48483,-144.40507 -4.73256,-23.45987 -5.08647,-22.01312 5.9768,-24.43544 11.55563,-2.5301 43.31026,-7.70536 61.18315,-9.9714 8.67044,-1.0993 27.80391,-1.70576 53.81557,-1.70576 35.91648,0 42.47277,0.32857 59.53089,2.98343 69.70753,10.84908 126.87013,36.10926 182.56723,80.67648 16.7741,13.4222 48.2489,44.99034 64.1425,64.33281 7.2385,8.80909 13.4766,16.30483 13.8627,16.65719 1.5696,1.43309 -5.4907,-9.36516 -17.5937,-26.90776 -69.089,-100.14074 -150.5335,-161.07669 -240.36551,-179.83911 -22.16824,-4.63009 -37.77544,-6.06901 -65.34746,-6.02483 -33.10345,0.053 -53.58811,2.6233 -87.78723,11.01484 -27.24399,6.6849 -41.71705,11.73647 -58.28349,20.34275 -46.52084,24.16735 -89.43488,55.40374 -128.61439,93.61595 C 474.12059,567.32189 419.3938,765.23522 468.72524,955.32962 503.5955,1089.6991 591.61576,1207.317 711.50818,1279.7505 c 71.71332,43.3258 151.52957,69.4661 231.91936,75.9549 25.42657,2.0522 27.08648,2.1406 43.56495,2.3176 l 15.37571,0.1651 z"
       id="path1"
       sodipodi:nodetypes="ssscsscsssssssscsscsssscssssssscccsssscsscsscssssssssssssccsscsscssssscsssscsssscsscssscsssssscsssscssscsssssssssssssssssssssssssssssssssssssssssscssssssscsssssssssscsssssssscssssssssssssssssscsssssssssscc" />
    <text
       xml:space="preserve"
       id="text1"
       style="font-style:normal;font-variant:normal;font-weight:800;font-stretch:normal;font-size:96px;font-family:Kanit;-inkscape-font-specification:'Kanit, Ultra-Bold';font-variant-ligatures:normal;font-variant-caps:normal;font-variant-numeric:normal;font-variant-east-asian:normal;white-space:pre;shape-inside:url(#rect1);shape-padding:12.4931;fill:#23e873;fill-opacity:1;stroke:#00742f;stroke-width:2.4513;stroke-dasharray:none;stroke-opacity:1"
       transform="matrix(4.2999426,0,0,4.2999426,-681.68554,-5959.6511)"
       inkscape:label="text1"><tspan
         x="185.47461"
         y="1828.5495"
         id="tspan1">ReciTech</tspan></text>
  </g>
</svg>
